<?xml version="1.0" encoding="UTF-8"?>
<svg id="Calque_1" data-name="Calque 1" xmlns="http://www.w3.org/2000/svg" version="1.1" viewBox="0 0 40 40">
  <defs>
    <style>
      .cls-1 {
        fill: none;
        stroke: #000;
        stroke-linecap: round;
        stroke-linejoin: round;
        stroke-width: 2px;
      }

      .cls-2 {
        fill: #000;
        stroke-width: 0px;
      }
    </style>
  </defs>
  <path class="cls-2" d="M14.6,17.6c-.1.2-.4.5-.6.4-.5-1-2-1.9-3-1.1-.6.9.3,1.8,1.2,2,.9.3,2,.8,2.1,1.7.2,1.4-1.4,2.6-2.7,2.3-.9-.1-1.7-.8-2.1-1.6v-.2c.1-.2.4-.5.6-.4.5,1,1.8,1.8,2.8,1.5.6-.2.7-.6.6-1.1-.1-.7-.8-1.2-1.7-1.5-1.6-.4-2.5-1.7-1.3-3,1.2-1.3,3.2-.7,3.9.8.3.1.2.2.2.2Z"/>
  <path class="cls-2" d="M22.8,16c.3.1-.3.7-.5.7h-3l-.2,2.5h3c.1,0,.1.1.1.2,0,.2-.4.5-.6.5h-2.6l-.2,2.5h3.4c.1,0,.1.1.1.2,0,.2-.4.5-.6.5h-3.5q-.1,0-.1-.1l.5-6.3q0-.1.1-.2c.1-.2.3-.3.4-.3h.1c.2-.2,3.6-.2,3.6-.2Z"/>
  <path class="cls-2" d="M26.9,16.5c0-.2.3-.5.5-.6h3.6c.1,0,.1.1.1.2,0,.2-.4.5-.6.5h-3l-.2,2.5h3c.1,0,.1.1.1.2,0,.2-.4.5-.6.5h-2.6l-.2,2.6c0,.2-.3.5-.5.6-.1.1-.2,0-.2-.1l.6-6.4Z"/>
  <path class="cls-1" d="M36,21.9v13.9c0,1.1-.9,2.1-2.1,2.1h-17.1v-7.8h-4.6v7.8h-6.1c-1.2,0-2.1-.9-2.1-2.1v-13.9"/>
  <path class="cls-1" d="M36,16.9L21.4,2.7c-.8-.8-2.1-.8-2.9,0l-14.5,14.2"/>
</svg>